<mxfile host="app.diagrams.net" modified="2024-01-11T04:14:55.497Z" agent="Mozilla/5.0 (X11; Ubuntu; Linux x86_64; rv:121.0) Gecko/20100101 Firefox/121.0" version="22.1.18" etag="3nW0uKD1AwkKegQHSQSw" type="github">
  <diagram name="Page-1" id="kdc2qSVnrcy09jnz_x2b">
    <mxGraphModel>
      <root>
        <mxCell id="0" />
        <mxCell id="1" parent="0" />
      </root>
    </mxGraphModel>
  </diagram>
</mxfile>
